<mxfile host="app.diagrams.net" agent="Mozilla/5.0 (Windows NT 10.0; Win64; x64) AppleWebKit/537.36 (KHTML, like Gecko) Chrome/138.0.0.0 Safari/537.36 Edg/138.0.0.0" version="28.0.6">
  <diagram name="Page-1" id="4GE9zzhbIalb1GcEBW2I">
    <mxGraphModel grid="1" page="1" gridSize="10" guides="1" tooltips="1" connect="1" arrows="1" fold="1" pageScale="1" pageWidth="850" pageHeight="1100" math="0" shadow="0">
      <root>
        <mxCell id="0" />
        <mxCell id="1" parent="0" />
        <mxCell id="av21G6XWJTKPIU4NJKzJ-2" value="" style="rounded=0;whiteSpace=wrap;html=1;fontSize=21;" vertex="1" parent="1">
          <mxGeometry y="60" width="880" height="740" as="geometry" />
        </mxCell>
        <mxCell id="av21G6XWJTKPIU4NJKzJ-3" value="&lt;font size=&quot;3&quot;&gt;search&lt;/font&gt;" style="ellipse;whiteSpace=wrap;html=1;" vertex="1" parent="1">
          <mxGeometry x="220" y="120" width="120" height="80" as="geometry" />
        </mxCell>
        <mxCell id="av21G6XWJTKPIU4NJKzJ-5" value="show time&amp;nbsp;" style="ellipse;whiteSpace=wrap;html=1;" vertex="1" parent="1">
          <mxGeometry x="220" y="250" width="120" height="80" as="geometry" />
        </mxCell>
        <mxCell id="av21G6XWJTKPIU4NJKzJ-6" value="booking" style="ellipse;whiteSpace=wrap;html=1;" vertex="1" parent="1">
          <mxGeometry x="220" y="390" width="120" height="80" as="geometry" />
        </mxCell>
        <mxCell id="av21G6XWJTKPIU4NJKzJ-7" value="payment" style="ellipse;whiteSpace=wrap;html=1;" vertex="1" parent="1">
          <mxGeometry x="220" y="520" width="120" height="80" as="geometry" />
        </mxCell>
        <mxCell id="av21G6XWJTKPIU4NJKzJ-8" value="cancel booking" style="ellipse;whiteSpace=wrap;html=1;" vertex="1" parent="1">
          <mxGeometry x="220" y="650" width="120" height="80" as="geometry" />
        </mxCell>
        <mxCell id="av21G6XWJTKPIU4NJKzJ-9" value="Actor" style="shape=umlActor;verticalLabelPosition=bottom;verticalAlign=top;html=1;outlineConnect=0;" vertex="1" parent="1">
          <mxGeometry x="-70" y="380" width="30" height="60" as="geometry" />
        </mxCell>
        <mxCell id="av21G6XWJTKPIU4NJKzJ-10" value="Actor" style="shape=umlActor;verticalLabelPosition=bottom;verticalAlign=top;html=1;outlineConnect=0;" vertex="1" parent="1">
          <mxGeometry x="910" y="360" width="30" height="60" as="geometry" />
        </mxCell>
        <mxCell id="av21G6XWJTKPIU4NJKzJ-12" value="" style="endArrow=none;html=1;rounded=0;entryX=0.075;entryY=0.688;entryDx=0;entryDy=0;entryPerimeter=0;exitX=0.75;exitY=0.1;exitDx=0;exitDy=0;exitPerimeter=0;" edge="1" parent="1" source="av21G6XWJTKPIU4NJKzJ-9" target="av21G6XWJTKPIU4NJKzJ-3">
          <mxGeometry width="50" height="50" relative="1" as="geometry">
            <mxPoint x="80" y="350" as="sourcePoint" />
            <mxPoint x="130" y="300" as="targetPoint" />
          </mxGeometry>
        </mxCell>
        <mxCell id="av21G6XWJTKPIU4NJKzJ-13" value="" style="endArrow=none;html=1;rounded=0;entryX=0;entryY=0.5;entryDx=0;entryDy=0;" edge="1" parent="1" target="av21G6XWJTKPIU4NJKzJ-5">
          <mxGeometry width="50" height="50" relative="1" as="geometry">
            <mxPoint x="-30" y="410" as="sourcePoint" />
            <mxPoint x="230" y="210" as="targetPoint" />
          </mxGeometry>
        </mxCell>
        <mxCell id="av21G6XWJTKPIU4NJKzJ-14" value="" style="endArrow=none;html=1;rounded=0;" edge="1" parent="1" target="av21G6XWJTKPIU4NJKzJ-6">
          <mxGeometry width="50" height="50" relative="1" as="geometry">
            <mxPoint x="-20" y="420" as="sourcePoint" />
            <mxPoint x="230" y="300" as="targetPoint" />
          </mxGeometry>
        </mxCell>
        <mxCell id="av21G6XWJTKPIU4NJKzJ-15" value="" style="endArrow=none;html=1;rounded=0;entryX=0;entryY=0.5;entryDx=0;entryDy=0;" edge="1" parent="1" target="av21G6XWJTKPIU4NJKzJ-7">
          <mxGeometry width="50" height="50" relative="1" as="geometry">
            <mxPoint x="-10" y="440" as="sourcePoint" />
            <mxPoint x="231" y="434" as="targetPoint" />
          </mxGeometry>
        </mxCell>
        <mxCell id="av21G6XWJTKPIU4NJKzJ-16" value="" style="endArrow=none;html=1;rounded=0;entryX=0;entryY=0.5;entryDx=0;entryDy=0;" edge="1" parent="1" target="av21G6XWJTKPIU4NJKzJ-8">
          <mxGeometry width="50" height="50" relative="1" as="geometry">
            <mxPoint x="-10" y="460" as="sourcePoint" />
            <mxPoint x="230" y="570" as="targetPoint" />
          </mxGeometry>
        </mxCell>
        <mxCell id="av21G6XWJTKPIU4NJKzJ-17" value="filter based&amp;nbsp;&lt;div&gt;on language&lt;/div&gt;" style="ellipse;whiteSpace=wrap;html=1;" vertex="1" parent="1">
          <mxGeometry x="425" y="120" width="170" height="80" as="geometry" />
        </mxCell>
        <mxCell id="av21G6XWJTKPIU4NJKzJ-18" value="manage&lt;div&gt;&amp;nbsp;booking&lt;/div&gt;" style="ellipse;whiteSpace=wrap;html=1;" vertex="1" parent="1">
          <mxGeometry x="640" y="310" width="120" height="80" as="geometry" />
        </mxCell>
        <mxCell id="av21G6XWJTKPIU4NJKzJ-19" value="manage&amp;nbsp;&lt;div&gt;showtime&lt;/div&gt;" style="ellipse;whiteSpace=wrap;html=1;" vertex="1" parent="1">
          <mxGeometry x="640" y="420" width="120" height="80" as="geometry" />
        </mxCell>
        <mxCell id="av21G6XWJTKPIU4NJKzJ-20" value="generate&lt;div&gt;reports&lt;/div&gt;" style="ellipse;whiteSpace=wrap;html=1;" vertex="1" parent="1">
          <mxGeometry x="640" y="540" width="120" height="80" as="geometry" />
        </mxCell>
        <mxCell id="av21G6XWJTKPIU4NJKzJ-21" value="" style="endArrow=none;html=1;rounded=0;exitX=1;exitY=0.5;exitDx=0;exitDy=0;" edge="1" parent="1" source="av21G6XWJTKPIU4NJKzJ-18">
          <mxGeometry width="50" height="50" relative="1" as="geometry">
            <mxPoint x="619" y="386" as="sourcePoint" />
            <mxPoint x="900" y="400" as="targetPoint" />
          </mxGeometry>
        </mxCell>
        <mxCell id="av21G6XWJTKPIU4NJKzJ-22" value="" style="endArrow=none;html=1;rounded=0;" edge="1" parent="1" source="av21G6XWJTKPIU4NJKzJ-19">
          <mxGeometry width="50" height="50" relative="1" as="geometry">
            <mxPoint x="600" y="370" as="sourcePoint" />
            <mxPoint x="910" y="400" as="targetPoint" />
            <Array as="points">
              <mxPoint x="910" y="400" />
            </Array>
          </mxGeometry>
        </mxCell>
        <mxCell id="av21G6XWJTKPIU4NJKzJ-23" value="" style="endArrow=none;html=1;rounded=0;exitX=1;exitY=0.5;exitDx=0;exitDy=0;entryX=0;entryY=1;entryDx=0;entryDy=0;entryPerimeter=0;" edge="1" parent="1" source="av21G6XWJTKPIU4NJKzJ-20" target="av21G6XWJTKPIU4NJKzJ-10">
          <mxGeometry width="50" height="50" relative="1" as="geometry">
            <mxPoint x="595" y="473" as="sourcePoint" />
            <mxPoint x="730" y="460" as="targetPoint" />
          </mxGeometry>
        </mxCell>
        <mxCell id="av21G6XWJTKPIU4NJKzJ-33" value="" style="endArrow=none;dashed=1;html=1;dashPattern=1 3;strokeWidth=2;rounded=0;" edge="1" parent="1" source="av21G6XWJTKPIU4NJKzJ-3" target="av21G6XWJTKPIU4NJKzJ-17">
          <mxGeometry width="50" height="50" relative="1" as="geometry">
            <mxPoint x="240" y="470" as="sourcePoint" />
            <mxPoint x="290" y="420" as="targetPoint" />
          </mxGeometry>
        </mxCell>
        <mxCell id="av21G6XWJTKPIU4NJKzJ-34" value="login" style="ellipse;whiteSpace=wrap;html=1;" vertex="1" parent="1">
          <mxGeometry x="370" y="520" width="120" height="80" as="geometry" />
        </mxCell>
        <mxCell id="av21G6XWJTKPIU4NJKzJ-35" value="" style="endArrow=none;dashed=1;html=1;dashPattern=1 3;strokeWidth=2;rounded=0;" edge="1" parent="1">
          <mxGeometry width="50" height="50" relative="1" as="geometry">
            <mxPoint x="340" y="429.3299999999999" as="sourcePoint" />
            <mxPoint x="425" y="429.3299999999999" as="targetPoint" />
          </mxGeometry>
        </mxCell>
        <mxCell id="av21G6XWJTKPIU4NJKzJ-36" value="" style="endArrow=none;dashed=1;html=1;dashPattern=1 3;strokeWidth=2;rounded=0;" edge="1" parent="1">
          <mxGeometry width="50" height="50" relative="1" as="geometry">
            <mxPoint x="345" y="689.3299999999999" as="sourcePoint" />
            <mxPoint x="430" y="689.3299999999999" as="targetPoint" />
          </mxGeometry>
        </mxCell>
        <mxCell id="av21G6XWJTKPIU4NJKzJ-37" value="" style="endArrow=none;dashed=1;html=1;dashPattern=1 3;strokeWidth=2;rounded=0;exitX=0.5;exitY=1;exitDx=0;exitDy=0;" edge="1" parent="1" source="av21G6XWJTKPIU4NJKzJ-34">
          <mxGeometry width="50" height="50" relative="1" as="geometry">
            <mxPoint x="355" y="699.3299999999999" as="sourcePoint" />
            <mxPoint x="420" y="690" as="targetPoint" />
          </mxGeometry>
        </mxCell>
        <mxCell id="av21G6XWJTKPIU4NJKzJ-38" value="" style="endArrow=none;dashed=1;html=1;dashPattern=1 3;strokeWidth=2;rounded=0;exitX=0.5;exitY=0;exitDx=0;exitDy=0;" edge="1" parent="1" source="av21G6XWJTKPIU4NJKzJ-34">
          <mxGeometry width="50" height="50" relative="1" as="geometry">
            <mxPoint x="440" y="610" as="sourcePoint" />
            <mxPoint x="420" y="430" as="targetPoint" />
          </mxGeometry>
        </mxCell>
        <mxCell id="av21G6XWJTKPIU4NJKzJ-39" value="&amp;lt;&amp;lt;include&amp;gt;&amp;gt;" style="rounded=1;whiteSpace=wrap;html=1;" vertex="1" parent="1">
          <mxGeometry x="380" y="380" width="120" height="40" as="geometry" />
        </mxCell>
        <mxCell id="av21G6XWJTKPIU4NJKzJ-40" value="&amp;lt;&amp;lt;Extend&amp;gt;&amp;gt;" style="rounded=1;whiteSpace=wrap;html=1;" vertex="1" parent="1">
          <mxGeometry x="329" y="80" width="120" height="40" as="geometry" />
        </mxCell>
      </root>
    </mxGraphModel>
  </diagram>
</mxfile>
